<?xml version="1.0" standalone="no"?>
<!DOCTYPE svg PUBLIC "-//W3C//DTD SVG 20010904//EN"
 "http://www.w3.org/TR/2001/REC-SVG-20010904/DTD/svg10.dtd">
<svg version="1.0" xmlns="http://www.w3.org/2000/svg"
 width="900.000000pt" height="900.000000pt" viewBox="0 0 900.000000 900.000000"
 preserveAspectRatio="xMidYMid meet">
<metadata>
Created by potrace 1.11, written by Peter Selinger 2001-2013
</metadata>
<g transform="translate(0.000000,900.000000) scale(0.100000,-0.100000)"
fill="#000000" stroke="none">
<path d="M6065 8439 c-1426 -38 -2830 -181 -4158 -425 -197 -36 -233 -47 -301
-91 l-42 -28 -3 -78 c-2 -69 5 -104 69 -335 88 -316 102 -356 140 -403 16 -21
30 -42 30 -47 0 -5 41 -9 92 -9 l92 0 43 -154 c24 -85 48 -171 54 -191 6 -25
14 -35 23 -32 9 3 17 -9 25 -40 10 -43 12 -44 38 -37 16 5 80 25 143 44 186
58 517 143 524 136 2 -2 -5 -56 -15 -119 -57 -356 -124 -894 -174 -1398 -43
-431 -43 -431 -223 -583 -48 -41 -114 -99 -147 -129 -63 -59 -268 -207 -595
-430 -173 -118 -238 -165 -205 -148 6 3 174 100 375 215 414 238 419 241 517
282 69 30 143 41 143 22 0 -13 -143 -116 -470 -341 -146 -100 -267 -184 -270
-187 -10 -11 50 23 385 217 351 203 405 234 405 226 0 -8 -190 -143 -470 -336
-146 -100 -267 -184 -270 -187 -10 -11 46 21 290 162 397 231 442 256 445 253
2 -2 -8 -131 -21 -288 -53 -640 -89 -1227 -99 -1610 -7 -263 -10 -286 -33
-293 -53 -17 -235 -86 -227 -86 6 -1 61 10 123 23 l114 24 -7 -26 c-9 -36 -8
-36 -105 -71 -92 -32 -90 -39 5 -16 32 8 61 12 63 10 2 -2 -4 -17 -13 -33 -15
-24 -43 -40 -159 -86 -78 -31 -172 -67 -211 -80 -38 -14 -65 -25 -60 -25 6 -1
101 18 211 42 l201 43 26 -41 c48 -75 50 -89 57 -380 5 -154 15 -329 23 -390
9 -60 21 -239 27 -396 13 -337 23 -403 33 -214 11 194 37 461 52 535 8 36 25
117 39 181 14 63 34 174 45 245 l19 129 1 -75 c2 -165 22 -601 30 -642 6 -35
9 -14 16 107 l9 150 12 -183 c7 -101 14 -186 17 -188 2 -2 7 53 11 123 4 71
14 198 22 283 13 143 94 853 98 857 0 0 96 22 211 48 1044 232 2820 752 3979
1165 256 91 316 118 364 164 56 52 81 118 149 390 57 232 64 270 61 341 -3 80
-3 80 -43 114 -57 49 -125 77 -430 180 -1001 340 -2010 585 -3020 736 -132 19
-246 36 -254 38 -8 1 73 58 180 126 1190 762 2004 1358 2681 1961 l39 35 -26
69 c-14 38 -25 74 -23 81 2 7 66 68 143 134 272 237 279 262 160 591 -106 293
-134 334 -250 365 -66 17 -211 18 -730 4z m-375 -1283 c0 -7 -402 -349 -585
-497 -457 -371 -1658 -1279 -1672 -1265 -10 10 131 656 226 1041 l60 240 -30
25 c-20 17 -28 31 -24 41 4 12 -9 27 -44 52 l-49 36 10 40 c6 22 18 43 27 45
27 8 294 54 501 85 393 60 857 114 1205 141 77 6 156 12 175 14 55 5 200 6
200 2z m-2095 -2551 c777 -197 1807 -574 2495 -916 l195 -97 -80 -37 c-311
-144 -1248 -534 -1780 -740 -549 -213 -1490 -554 -1500 -544 -2 3 16 155 40
339 70 534 146 1034 262 1726 l56 341 86 -18 c47 -11 149 -35 226 -54z"/>
</g>
</svg>
