<svg width="580" height="400" xmlns="http://www.w3.org/2000/svg">
 <!-- Created with Method Draw - http://github.com/duopixel/Method-Draw/ -->

 <g>
  <title>background</title>
  <rect x="-1" y="-1" width="582" height="402" id="canvas_background" fill="none"/>
  <g id="canvasGrid" display="none">
   <rect id="svg_1" width="100%" height="100%" x="0" y="0" stroke-width="0" fill="url(#gridpattern)"/>
  </g>
 </g>
 <g>
  <title>Layer 1</title>
  <g stroke="null" id="svg_22">
   <path stroke="null" d="m107.216979,149.041515l85.366238,0c9.706556,0 17.575229,7.868673 17.575229,17.575464l0,85.366238c0,9.706556 -7.868673,17.575229 -17.575464,17.575229l-85.366003,0c-9.706791,0 -17.575464,-7.868673 -17.575464,-17.575464l0,-85.366003c0,-9.706791 7.868673,-17.575464 17.575464,-17.575464z" fill="#F44336" id="svg_5"/>
   <path stroke="null" d="m177.518366,169.127592c-23.601311,0 -30.204556,18.373888 -35.005225,31.791284c-0.954014,2.67138 -1.782568,5.352882 -2.586171,7.95906c-4.037317,13.096095 -6.849457,20.507886 -17.645608,20.507886c-1.38665,0 -2.510848,1.124197 -2.510848,2.510848l0,15.064616c0,1.38665 1.124197,2.510848 2.510848,2.510848c17.073153,0 30.028724,-14.853712 34.553287,-30.129233l15.662258,0c1.38665,0 2.510848,-1.124197 2.510848,-2.510848l0,-15.064616c0,-1.38665 -1.124197,-2.510848 -2.510848,-2.510848l-9.912517,0l0.221026,-0.502076c2.842269,-6.352325 4.268229,-9.540845 14.713187,-9.540845c1.38665,0 2.510848,-1.124197 2.510848,-2.510848l0,-15.064381c-0.000235,-1.38665 -1.124433,-2.510848 -2.511083,-2.510848l-0.000001,0z" fill="#FAFAFA" id="svg_6"/>
   <g stroke="null" id="svg_7" transform="matrix(0.23538463082543015,0,0,0.23538463082543015,-680.6372382789712,-441.5645263736832) "/>
   <g stroke="null" id="svg_8" transform="matrix(0.23538463082543015,0,0,0.23538463082543015,-680.6372382789712,-441.5645263736832) "/>
   <g stroke="null" id="svg_9" transform="matrix(0.23538463082543015,0,0,0.23538463082543015,-680.6372382789712,-441.5645263736832) "/>
   <g stroke="null" id="svg_10" transform="matrix(0.23538463082543015,0,0,0.23538463082543015,-680.6372382789712,-441.5645263736832) "/>
   <g stroke="null" id="svg_11" transform="matrix(0.23538463082543015,0,0,0.23538463082543015,-680.6372382789712,-441.5645263736832) "/>
   <g stroke="null" id="svg_12" transform="matrix(0.23538463082543015,0,0,0.23538463082543015,-680.6372382789712,-441.5645263736832) "/>
   <g stroke="null" id="svg_13" transform="matrix(0.23538463082543015,0,0,0.23538463082543015,-680.6372382789712,-441.5645263736832) "/>
   <g stroke="null" id="svg_14" transform="matrix(0.23538463082543015,0,0,0.23538463082543015,-680.6372382789712,-441.5645263736832) "/>
   <g stroke="null" id="svg_15" transform="matrix(0.23538463082543015,0,0,0.23538463082543015,-680.6372382789712,-441.5645263736832) "/>
   <g stroke="null" id="svg_16" transform="matrix(0.23538463082543015,0,0,0.23538463082543015,-680.6372382789712,-441.5645263736832) "/>
   <g stroke="null" id="svg_17" transform="matrix(0.23538463082543015,0,0,0.23538463082543015,-680.6372382789712,-441.5645263736832) "/>
   <g stroke="null" id="svg_18" transform="matrix(0.23538463082543015,0,0,0.23538463082543015,-680.6372382789712,-441.5645263736832) "/>
   <g stroke="null" id="svg_19" transform="matrix(0.23538463082543015,0,0,0.23538463082543015,-680.6372382789712,-441.5645263736832) "/>
   <g stroke="null" id="svg_20" transform="matrix(0.23538463082543015,0,0,0.23538463082543015,-680.6372382789712,-441.5645263736832) "/>
   <g stroke="null" id="svg_21" transform="matrix(0.23538463082543015,0,0,0.23538463082543015,-680.6372382789712,-441.5645263736832) "/>
  </g>
  <g id="svg_52" stroke="null">
   <g id="svg_27" transform="matrix(0.41243803047516386,0,0,0.41243803047516386,-1428.0827091990168,-921.4603935416333) " stroke="null">
    <path d="m4359.446349,2466.924928c-5.891,0 -10.667,4.776 -10.667,10.667l0,42.667c0,5.891 4.776,10.667 10.667,10.667c5.891,0 10.667,-4.776 10.667,-10.667l0,-42.668c0,-5.891 -4.776,-10.666 -10.667,-10.666z" fill="#37474F" id="svg_28" stroke="null"/>
    <path d="m4402.112349,2509.590928l-42.667,0c-5.891,0 -10.667,-4.776 -10.667,-10.667s4.776,-10.667 10.667,-10.667l42.667,0c5.891,0 10.667,4.776 10.667,10.667s-4.775,10.667 -10.667,10.667z" fill="#37474F" id="svg_29" stroke="null"/>
    <path d="m4402.112349,2530.924928c-5.891,0 -10.667,-4.776 -10.667,-10.667l0,-42.667c0,-5.891 4.776,-10.667 10.667,-10.667c5.891,0 10.667,4.776 10.667,10.667l0,42.667c0,5.891 -4.775,10.667 -10.667,10.667z" fill="#37474F" id="svg_30" stroke="null"/>
    <path d="m4487.446349,2488.257928l-42.667,0c-5.891,0 -10.667,-4.776 -10.667,-10.667s4.776,-10.667 10.667,-10.667l42.667,0c5.891,0 10.667,4.776 10.667,10.667s-4.776,10.667 -10.667,10.667z" fill="#37474F" id="svg_31" stroke="null"/>
    <path d="m4466.112349,2530.924928c-5.891,0 -10.667,-4.776 -10.667,-10.667l0,-42.667c0,-5.891 4.776,-10.667 10.667,-10.667c5.891,0 10.667,4.776 10.667,10.667l0,42.667c0,5.891 -4.775,10.667 -10.667,10.667z" fill="#37474F" id="svg_32" stroke="null"/>
    <path d="m4594.112349,2530.924928c-5.891,0 -10.667,-4.776 -10.667,-10.667l0,-10.667l-12.8,17.067c-3.878,4.713 -10.842,5.39 -15.555,1.512c-0.552,-0.454 -1.058,-0.96 -1.512,-1.512l-12.8,-17.067l0,10.667c0,5.891 -4.776,10.667 -10.667,10.667c-5.891,0 -10.667,-4.776 -10.667,-10.667l0,-42.667c0,-5.891 4.776,-10.667 10.667,-10.667c3.357,0 6.519,1.581 8.533,4.267l23.467,31.275l23.467,-31.275c3.535,-4.713 10.221,-5.668 14.933,-2.133c2.686,2.014 4.267,5.176 4.267,8.533l0,42.667c0.001,5.891 -4.774,10.667 -10.666,10.667z" fill="#37474F" id="svg_33" stroke="null"/>
    <path d="m4668.779349,2530.924928l-32,0c-5.891,0 -10.667,-4.776 -10.667,-10.667l0,-42.667c0,-5.891 4.776,-10.667 10.667,-10.667c5.891,0 10.667,4.776 10.667,10.667l0,32l21.333,0c5.891,0 10.667,4.776 10.667,10.667s-4.776,10.667 -10.667,10.667z" fill="#37474F" id="svg_34" stroke="null"/>
   </g>
   <path d="m505.154302,141.429471c-0.833125,-0.918499 -2.015585,-1.442296 -3.255373,-1.443121l-140.779123,0c-2.429672,-0.010723 -4.408138,1.950007 -4.418861,4.379679c-0.000825,0.144766 0.005774,0.289119 0.019385,0.43306l13.198017,140.77871c0.170337,1.806066 1.431572,3.322188 3.176185,3.818764l61.590608,17.597493c0.39759,0.113008 0.809616,0.1691 1.222879,0.167037c0.471829,-0.000412 0.941184,-0.074651 1.390329,-0.219829l52.792068,-17.597493c1.655939,-0.551017 2.829325,-2.02837 2.991413,-3.765972l13.198017,-140.77871c0.115895,-1.23154 -0.292831,-2.454831 -1.125543,-3.369619l-0.000001,0.000001z" fill="#FF5722" id="svg_35" stroke="null"/>
   <path d="m435.908844,271.96652c-0.407901,-0.002475 -0.81374,-0.061866 -1.205556,-0.176111l-30.795098,-8.798541c-1.511585,-0.430173 -2.678785,-1.634492 -3.06194,-3.158863l-4.399476,-17.597493c-0.642578,-2.34306 0.736202,-4.763659 3.079262,-5.406238c2.34306,-0.642578 4.763659,0.736202 5.406238,3.079262c0.018147,0.065578 0.034232,0.131155 0.04908,0.197558l3.783294,15.133589l27.047274,7.725377l22.401572,-7.470078l3.624918,-36.320943l-65.523617,0c-2.228815,0.017735 -4.118606,-1.634079 -4.399476,-3.84516l-4.399476,-35.194574c-0.306029,-2.410288 1.399402,-4.612294 3.80969,-4.918736c0.195496,-0.024746 0.392641,-0.036707 0.589374,-0.035057l83.587578,0c2.429672,0 4.399476,1.969804 4.399476,4.399476c0,2.429672 -1.969804,4.399476 -4.399476,4.399476l-78.606977,0l3.299504,26.396034l66.509344,0c2.429672,-0.012373 4.408963,1.947532 4.421336,4.377205c0.000825,0.154252 -0.006599,0.308504 -0.021859,0.461931l-4.399476,43.993527c-0.170749,1.725228 -1.338361,3.189383 -2.982752,3.739576l-26.396034,8.798541c-0.457806,0.148065 -0.935822,0.222717 -1.416725,0.220242l-0.000002,0z" fill="#FAFAFA" id="svg_36" stroke="null"/>
   <g id="svg_37" transform="matrix(0.41243803047516386,0,0,0.41243803047516386,-1428.0827091990168,-921.4603935416333) " stroke="null"/>
   <g id="svg_38" transform="matrix(0.41243803047516386,0,0,0.41243803047516386,-1428.0827091990168,-921.4603935416333) " stroke="null"/>
   <g id="svg_39" transform="matrix(0.41243803047516386,0,0,0.41243803047516386,-1428.0827091990168,-921.4603935416333) " stroke="null"/>
   <g id="svg_40" transform="matrix(0.41243803047516386,0,0,0.41243803047516386,-1428.0827091990168,-921.4603935416333) " stroke="null"/>
   <g id="svg_41" transform="matrix(0.41243803047516386,0,0,0.41243803047516386,-1428.0827091990168,-921.4603935416333) " stroke="null"/>
   <g id="svg_42" transform="matrix(0.41243803047516386,0,0,0.41243803047516386,-1428.0827091990168,-921.4603935416333) " stroke="null"/>
   <g id="svg_43" transform="matrix(0.41243803047516386,0,0,0.41243803047516386,-1428.0827091990168,-921.4603935416333) " stroke="null"/>
   <g id="svg_44" transform="matrix(0.41243803047516386,0,0,0.41243803047516386,-1428.0827091990168,-921.4603935416333) " stroke="null"/>
   <g id="svg_45" transform="matrix(0.41243803047516386,0,0,0.41243803047516386,-1428.0827091990168,-921.4603935416333) " stroke="null"/>
   <g id="svg_46" transform="matrix(0.41243803047516386,0,0,0.41243803047516386,-1428.0827091990168,-921.4603935416333) " stroke="null"/>
   <g id="svg_47" transform="matrix(0.41243803047516386,0,0,0.41243803047516386,-1428.0827091990168,-921.4603935416333) " stroke="null"/>
   <g id="svg_48" transform="matrix(0.41243803047516386,0,0,0.41243803047516386,-1428.0827091990168,-921.4603935416333) " stroke="null"/>
   <g id="svg_49" transform="matrix(0.41243803047516386,0,0,0.41243803047516386,-1428.0827091990168,-921.4603935416333) " stroke="null"/>
   <g id="svg_50" transform="matrix(0.41243803047516386,0,0,0.41243803047516386,-1428.0827091990168,-921.4603935416333) " stroke="null"/>
   <g id="svg_51" transform="matrix(0.41243803047516386,0,0,0.41243803047516386,-1428.0827091990168,-921.4603935416333) " stroke="null"/>
  </g>
  <g id="svg_62" stroke="null">
   <g transform="matrix(-0.12269753781360544,0,0,-0.12269753781360544,-1193.6442036663896,-862.4973027637377) " id="svg_59" stroke="null">
    <polygon points="-11604.081495285034,-8687.2568359375 -12273.153760910034,-8687.2568359375 -12273.153760910034,-8545.5244140625 -12506.331495285034,-8727.8837890625 -12273.153760910034,-8910.2431640625 -12273.153760910034,-8768.5107421875 -11604.081495285034,-8768.5107421875 -11604.081495285034,-8687.2568359375 " id="svg_60" stroke="null"/>
   </g>
  </g>
  <metadata transform="matrix(0.017777779632144552,0,0,0.017777779632144552,0,0) ">Svg Vector Icons : http://www.onlinewebfonts.com/icon</metadata>
 </g>
</svg>