<svg id="Line_expand" height="512" viewBox="0 0 512 512" width="512" xmlns="http://www.w3.org/2000/svg" data-name="Line expand"><g><path d="m32 160h-16v190a18.021 18.021 0 0 0 18 18h142v14.586a21.931 21.931 0 0 1 -18.384 21.7l-6.22 1.036a27.914 27.914 0 0 0 -23.396 27.62v7.058a8 8 0 0 0 8 8h96v-16h-87.964a11.961 11.961 0 0 1 9.991-10.895l6.22-1.036a37.882 37.882 0 0 0 31.753-37.483v-14.586h40v-16h-198a2 2 0 0 1 -2-2v-30h200v-16h-200z"/><path d="m72 80h336v88h16v-144a8 8 0 0 0 -8-8h-352a8 8 0 0 0 -8 8v72h-22a18.021 18.021 0 0 0 -18 18v30h16v-30a2 2 0 0 1 2-2h22v168a8 8 0 0 0 8 8h168v-16h-160zm336-48v32h-336v-32z"/><path d="m88 40h16v16h-16z"/><path d="m120 40h16v16h-16z"/><path d="m152 40h16v16h-16z"/><path d="m376 40h16v16h-16z"/><path d="m392 128v-24a8 8 0 0 0 -8-8h-24v16h16v16z"/><path d="m88 224v24a8 8 0 0 0 8 8h24v-16h-16v-16z"/><path d="m264 202a2 2 0 0 1 2-2h188a2 2 0 0 1 2 2v54h16v-54a18.021 18.021 0 0 0 -18-18h-188a18.021 18.021 0 0 0 -18 18v252a18.021 18.021 0 0 0 18 18h86v-16h-86a2 2 0 0 1 -2-2v-22h88v-16h-88z"/><path d="m280 376v16a8 8 0 0 0 8 8h16v-16h-8v-8z"/><path d="m440 240v-16a8 8 0 0 0 -8-8h-16v16h8v8z"/><path d="m496 416v-126a18.021 18.021 0 0 0 -18-18h-92a18.021 18.021 0 0 0 -18 18v188a18.021 18.021 0 0 0 18 18h92a18.021 18.021 0 0 0 18-18v-46h-16v46a2 2 0 0 1 -2 2h-92a2 2 0 0 1 -2-2v-188a2 2 0 0 1 2-2h92a2 2 0 0 1 2 2v126z"/><path d="m424 456h16v16h-16z"/><path d="m423.999 350.059h16.001v67.882h-16.001z" transform="matrix(.707 -.707 .707 .707 -144.999 417.941)"/><path d="m443.999 347.029h16.001v33.941h-16.001z" transform="matrix(.707 -.707 .707 .707 -124.999 426.225)"/></g></svg>